:version 1.10
:name ASF
:units
  mass 1
  length 1
  angle deg
:documentation
  ASF file generated by Kaydara
:root
  axis xyz
  order  tx ty tz rx ry rz
  position 0 0 0
  orientation 0 0 0
:bonedata
  begin
    id 1
    name SpineDummy
    direction 0.999998 -0.00179978 1.38929e-006
    length 3.60008
    axis 0 0 0 xyz
  end
  begin
    id 2
    name Spine
    direction 0.964365 0.262802 0.0305839
    length 8.13928
    axis 1.33928 -1.75354 15.2838 xyz
    dof rx ry rz
  end
  begin
    id 3
    name Spine1
    direction 0.811168 0.572065 0.12144
    length 7.14954
    axis 2.2224 -6.9761 35.2157 xyz
    dof rx ry rz
  end
  begin
    id 4
    name Neck
    direction 0 0 0
    length 0
    axis 2.2224 -6.9761 35.2157 xyz
    dof rx ry rz
  end
  begin
    id 5
    name HeadDummy
    direction 0.810939 0.572387 0.121455
    length 3.55534
    axis 2.2224 -6.9761 35.2157 xyz
  end
  begin
    id 6
    name Head
    direction 0.998226 -0.000232542 0.0595419
    length 7.35666
    axis -3.03688 -3.41352 -0.0133467 xyz
    dof rx ry rz
  end
  begin
    id 7
    name R_ClavicleDummy
    direction 0.531669 -0.194489 -0.824319
    length 2.49392
    axis 2.2224 -6.9761 35.2157 xyz
  end
  begin
    id 8
    name R_Clavicle
    direction -0.155119 0.0480802 -0.986725
    length 4.485
    axis -54.2764 80.6538 162.779 xyz
    dof rx ry rz
  end
  begin
    id 9
    name R_UpperArm
    direction -0.955567 0.200068 -0.216484
    length 10.1122
    axis -72.9943 12.5026 168.175 xyz
    dof rx ry rz
  end
  begin
    id 10
    name R_Forearm
    direction -0.61433 0.385743 0.688332
    length 9.39148
    axis -117.015 -43.4982 147.875 xyz
    dof rx ry rz
  end
  begin
    id 11
    name R_Hand
    direction -0.699429 0.0170333 0.714499
    length 3.66324
    axis -45.0303 -36.7097 175.478 xyz
    dof rx ry rz
  end
  begin
    id 12
    name L_ClavicleDummy
    direction 0.40287 -0.36502 0.839319
    length 2.49392
    axis 2.2224 -6.9761 35.2157 xyz
  end
  begin
    id 13
    name L_Clavicle
    direction -0.231271 -0.0726419 0.970174
    length 4.485
    axis 18.4357 -75.9711 -162.563 xyz
    dof rx ry rz
  end
  begin
    id 14
    name L_UpperArm
    direction -0.917494 0.144359 0.370629
    length 10.1122
    axis 56.0417 -21.7544 171.058 xyz
    dof rx ry rz
  end
  begin
    id 15
    name L_Forearm
    direction -0.496786 0.615074 -0.612281
    length 9.39148
    axis 89.8094 37.7546 128.927 xyz
    dof rx ry rz
  end
  begin
    id 16
    name L_Hand
    direction -0.409932 0.64962 -0.640274
    length 3.66324
    axis -0.424369 32.133 128.52 xyz
    dof rx ry rz
  end
  begin
    id 17
    name L_ThighDummy
    direction -1.84081e-006 1.87549e-006 1
    length 3.13049
    axis 0 0 0 xyz
  end
  begin
    id 18
    name L_Thigh
    direction -0.947739 0.307978 0.083308
    length 17.9961
    axis 173.219 -4.77873 161.998 xyz
    dof rx ry rz
  end
  begin
    id 19
    name L_Calf
    direction -0.728814 -0.684427 0.0197583
    length 13.3367
    axis 167.331 -1.13214 -136.799 xyz
    dof rx ry rz
  end
  begin
    id 20
    name L_Foot
    direction -0.9028 0.418719 0.0981191
    length 5.8674
    axis 163.436 11.5135 -155.37 xyz
    dof rx ry rz
  end
  begin
    id 21
    name L_Toe0
    direction -0.35341 0.886259 0.299411
    length 4.75286
    axis 169.316 -17.4222 111.74 xyz
    dof rx ry rz
  end
  begin
    id 22
    name R_ThighDummy
    direction 9.32778e-007 -8.82053e-007 -1
    length 3.13049
    axis 0 0 0 xyz
  end
  begin
    id 23
    name R_Thigh
    direction -0.925064 0.37528 -0.0585023
    length 17.9961
    axis -178.698 3.35385 157.919 xyz
    dof rx ry rz
  end
  begin
    id 24
    name R_Calf
    direction -0.68969 -0.718776 -0.0876886
    length 13.3367
    axis -160.504 5.03065 -133.817 xyz
    dof rx ry rz
  end
  begin
    id 25
    name R_Foot
    direction -0.857405 0.418858 -0.299022
    length 5.8674
    axis -161.328 4.38911 -154.413 xyz
    dof rx ry rz
  end
  begin
    id 26
    name R_Toe0
    direction -0.100745 0.952789 -0.286433
    length 4.75286
    axis 171.683 16.6445 96.0359 xyz
    dof rx ry rz
  end
:hierarchy
  begin
    root SpineDummy L_ThighDummy R_ThighDummy
    SpineDummy Spine
    Spine Spine1
    Spine1 Neck
    Neck HeadDummy R_ClavicleDummy L_ClavicleDummy
    HeadDummy Head
    R_ClavicleDummy R_Clavicle
    R_Clavicle R_UpperArm
    R_UpperArm R_Forearm
    R_Forearm R_Hand
    L_ClavicleDummy L_Clavicle
    L_Clavicle L_UpperArm
    L_UpperArm L_Forearm
    L_Forearm L_Hand
    L_ThighDummy L_Thigh
    L_Thigh L_Calf
    L_Calf L_Foot
    L_Foot L_Toe0
    R_ThighDummy R_Thigh
    R_Thigh R_Calf
    R_Calf R_Foot
    R_Foot R_Toe0
  end

:SAMPLES-PER-SECOND 30
:FULLY-SPECIFIED
:DEGREES
436
root  -6.70421 28.0742 1.96072 23.2299 4.25853 72.5538
Spine  -8.86244 -4.42832 11.9379
Spine1  -9.75681 38.9276 -3.98943
Neck  3.97569e-016 0 -2.38542e-015
Head  3.55034 -1.24752 13.687
R_Clavicle  0.38678 -21.0167 -1.00735
R_UpperArm  40.1398 -6.34402 42.8693
R_Forearm  2.24412 -42.2547 28.0065
R_Hand  -0.943449 6.31352 -18.2042
L_Clavicle  -0.323567 8.48105 1.28826
L_UpperArm  21.4747 -6.77695 -46.406
L_Forearm  1.99676 -6.26093 -7.29153
L_Hand  -1.34399 4.46795 -15.0234
L_Thigh  13.5935 -1.98774 15.8427
L_Calf  5.25495 5.40145 -43.9702
L_Foot  2.39224 6.72004 2.82911
L_Toe0  0.505156 0.034446 -6.1361
R_Thigh  6.3701 14.7568 6.51456
R_Calf  -4.21817 2.40369 7.73707
R_Foot  -2.45349 -12.0036 -4.38574
R_Toe0  -1.72264 -0.272694 -17.286
437
root  -7.69666 28.209 2.34544 16.4454 4.24658 71.5437
Spine  -9.00756 -8.35127 11.9332
Spine1  -7.67681 40.1502 -0.736628
Neck  3.97569e-016 0 -2.38542e-015
Head  -8.10017 -2.04252 12.405
R_Clavicle  0.393602 -21.2645 -1.12187
R_UpperArm  42.9716 -0.352447 38.3404
R_Forearm  12.0129 -41.8849 28.2474
R_Hand  -1.83591 7.90969 -25.4082
L_Clavicle  -0.358153 10.0182 1.47135
L_UpperArm  20.3231 -9.99734 -44.9944
L_Forearm  8.07647 -0.187173 -0.227238
L_Hand  -1.1373 4.24283 -13.0149
L_Thigh  11.0021 -5.84507 24.5785
L_Calf  6.48532 4.32162 -33.838
L_Foot  1.5558 5.01175 1.30197
L_Toe0  0.505156 0.034446 -6.1361
R_Thigh  4.19561 16.244 3.46166
R_Calf  -7.33599 2.00703 6.42588
R_Foot  -3.23269 -12.8997 -2.01681
R_Toe0  -1.47694 -0.267669 -17.1465
438
root  -8.39279 28.7724 2.92681 7.80872 5.32171 71.7369
Spine  -9.7408 -11.1152 11.2076
Spine1  -7.20154 37.6116 0.649093
Neck  3.97569e-016 0 -2.38542e-015
Head  -14.8156 -4.54887 12.9393
R_Clavicle  0.334449 -19.5869 -1.4509
R_UpperArm  41.01 3.28224 31.9598
R_Forearm  18.075 -39.8613 25.2687
R_Hand  -2.45332 9.12798 -29.4317
L_Clavicle  -0.340443 11.6639 0.357578
L_UpperArm  15.0891 -11.2841 -36.6628
L_Forearm  11.772 7.8814 9.18945
L_Hand  -0.821208 3.50078 -10.172
L_Thigh  8.78419 -10.3808 27.9041
L_Calf  7.25588 2.61023 -19.7278
L_Foot  0.764633 4.07889 -1.01432
L_Toe0  0.505156 0.034446 -6.1361
R_Thigh  -0.868813 16.0763 0.246607
R_Calf  -10.943 2.24998 7.15286
R_Foot  -4.42859 -16.1836 -0.804095
R_Toe0  -1.21639 -0.267234 -17.1929
439
root  -9.02592 29.6349 3.61769 -3.8129 6.06868 72.114
Spine  -9.30022 -10.361 9.50435
Spine1  -7.29795 29.1286 0.0109183
Neck  3.97569e-016 0 -2.38542e-015
Head  -18.6145 -5.96872 14.9782
R_Clavicle  0.270482 -17.9503 -1.68229
R_UpperArm  30.1866 4.60592 25.0394
R_Forearm  23.748 -33.5592 21.5825
R_Hand  -2.11953 8.79978 -27.2863
L_Clavicle  -0.328223 13.0614 -1.47508
L_UpperArm  8.4537 -10.9994 -24.2997
L_Forearm  8.24166 16.4801 20.0021
L_Hand  -0.517757 1.5817 -8.15858
L_Thigh  7.57284 -12.8887 26.898
L_Calf  8.57759 0.9221 -6.9761
L_Foot  -0.268169 1.94747 -3.47785
L_Toe0  0.505156 0.034446 -6.1361
R_Thigh  -5.72543 15.6622 -2.28284
R_Calf  -14.0872 2.7658 8.76535
R_Foot  -5.03923 -21.5683 -3.53962
R_Toe0  0.438588 -0.366376 -14.6878
440
root  -9.7536 30.5907 4.26734 -18.2359 6.27693 72.3045
Spine  -7.62584 -7.14596 7.21417
Spine1  -6.55652 16.4864 -1.1348
Neck  3.97569e-016 0 -2.38542e-015
Head  -20.2723 -5.27571 17.3597
R_Clavicle  0.258984 -17.5774 -1.65066
R_UpperArm  12.9911 5.97592 17.9987
R_Forearm  28.3087 -24.3069 19.9395
R_Hand  -1.43626 7.00762 -22.3717
L_Clavicle  -0.367439 14.4671 -2.94603
L_UpperArm  1.53076 -10.0147 -9.99229
L_Forearm  0.760405 23.6114 30.1264
L_Hand  -0.267127 -0.727631 -6.31189
L_Thigh  4.78453 -13.4958 23.6756
L_Calf  10.9259 -0.235378 1.51602
L_Foot  -1.62104 -0.941745 -7.28959
L_Toe0  0.505156 0.034446 -6.1361
R_Thigh  -6.06008 14.385 -2.74031
R_Calf  -19.1127 3.04312 9.57907
R_Foot  -1.89206 -23.9063 -15.2333
R_Toe0  -0.883794 0.239725 -5.31055
441
root  -10.7018 31.3033 4.82456 -33.2865 6.37483 71.859
Spine  -5.90067 -4.35088 5.20376
Spine1  -5.19334 4.71985 -2.15007
Neck  3.97569e-016 0 -2.38542e-015
Head  -19.1665 -4.15536 18.499
R_Clavicle  0.259155 -16.9941 -1.22627
R_UpperArm  4.83889 7.91296 9.65729
R_Forearm  23.0604 -18.2039 16.0497
R_Hand  -1.07417 5.68986 -19.1629
L_Clavicle  -0.469709 16.2634 -3.6602
L_UpperArm  -9.36743 -8.343 5.67728
L_Forearm  -3.08372 29.0877 36.6981
L_Hand  -0.139295 -1.3308 -3.70829
L_Thigh  -1.11997 -14.4863 19.9668
L_Calf  14.7553 -0.875591 6.28442
L_Foot  -2.67051 -4.38677 -9.82838
L_Toe0  0.505156 0.034446 -6.1361
R_Thigh  0.55616 11.3095 -0.354508
R_Calf  -22.6545 2.26429 7.05774
R_Foot  2.4442 -18.277 -29.1335
R_Toe0  -12.7059 4.02267 0.935058
442
root  -11.8907 31.5363 5.26236 -47.8718 5.93437 70.7173
Spine  -4.24803 -2.76301 3.8185
Spine1  -3.37633 -4.11601 -3.21538
Neck  3.97569e-016 0 -2.38542e-015
Head  -16.0533 -3.9589 17.6345
R_Clavicle  0.234198 -14.5968 -0.541617
R_UpperArm  0.261275 9.30064 -0.390755
R_Forearm  16.239 -12.744 10.8032
R_Hand  -0.918853 5.64223 -17.7589
L_Clavicle  -0.611303 18.4268 -3.91184
L_UpperArm  -23.6812 -5.64704 21.3159
L_Forearm  -0.168826 34.0586 40.2013
L_Hand  -0.0439147 0.0720575 -0.845937
L_Thigh  -10.6693 -16.1307 17.3619
L_Calf  18.7152 -1.1322 8.32706
L_Foot  -3.42162 -8.85414 -9.93018
L_Toe0  0.505156 0.034446 -6.1361
R_Thigh  11.2485 6.96888 3.41368
R_Calf  -16.1919 0.593118 1.82185
R_Foot  4.27118 -3.97933 -36.9219
R_Toe0  -19.7375 5.81195 -0.951121
443
root  -13.1923 31.3341 5.50002 -62.31 4.00188 70.5194
Spine  -1.59622 0.198275 2.9479
Spine1  -0.69536 -11.8583 -4.47901
Neck  3.97569e-016 0 -2.38542e-015
Head  -13.0032 -3.78393 15.4399
R_Clavicle  0.233467 -10.6371 0.352885
R_UpperArm  -1.36379 10.271 -10.9207
R_Forearm  11.3394 -6.90081 5.74392
R_Hand  -0.791043 6.1012 -16.7425
L_Clavicle  -0.72031 20.0933 -3.89613
L_UpperArm  -28.6498 -2.09818 34.8228
L_Forearm  2.1355 36.7011 44.2224
L_Hand  0.0609028 1.77267 1.00205
L_Thigh  -21.2824 -16.491 16.423
L_Calf  21.8626 -1.21809 9.05389
L_Foot  -3.86263 -11.4165 -10.0373
L_Toe0  0.432875 0.0384929 -6.20178
R_Thigh  21.3278 4.94132 4.86225
R_Calf  -7.21977 -0.998002 -3.11981
R_Foot  3.59688 -1.0459 -33.0366
R_Toe0  -9.40094 1.09383 -9.81769
444
root  -14.5228 30.7352 5.48083 -76.7428 1.26094 71.744
Spine  2.18688 4.80099 2.78385
Spine1  2.8748 -19.491 -5.69823
Neck  3.97569e-016 0 -2.38542e-015
Head  -10.919 -2.75915 13.0019
R_Clavicle  0.352219 -5.98521 1.6753
R_UpperArm  -0.0781436 12.0099 -21.1329
R_Forearm  9.6616 -1.35675 1.10016
R_Hand  -0.609775 6.73167 -15.4097
L_Clavicle  -0.721402 20.347 -3.50466
L_UpperArm  -27.8763 2.71049 45.5074
L_Forearm  6.11547 38.8435 47.9451
L_Hand  0.107796 2.6873 1.5991
L_Thigh  -26.3729 -16.3472 16.892
L_Calf  22.9081 -1.24759 9.29082
L_Foot  -3.55099 -8.95952 -10.6329
L_Toe0  1.18923 -0.00442387 -5.51418
R_Thigh  28.6273 4.69936 4.35156
R_Calf  -4.96441 -2.15173 -6.71205
R_Foot  3.15191 -0.0219014 -28.9312
R_Toe0  -1.92317 -0.389946 -17.2643
445
root  -15.8567 29.9211 5.18788 -90.7744 -2.41938 72.7692
Spine  6.34939 8.37359 4.18626
Spine1  6.76965 -25.5536 -6.39567
Neck  3.97569e-016 0 -2.38542e-015
Head  -8.79463 -1.72547 10.502
R_Clavicle  0.620629 -1.47925 3.23248
R_UpperArm  2.28127 15.2559 -30.9492
R_Forearm  11.1047 2.67255 -2.25028
R_Hand  -0.431668 6.85809 -13.9842
L_Clavicle  -0.63559 19.412 -2.63215
L_UpperArm  -25.2069 9.38685 54.0022
L_Forearm  10.5142 40.238 51.2352
L_Hand  0.141294 2.99909 2.00856
L_Thigh  -22.903 -18.1064 17.3004
L_Calf  18.2531 -1.12265 8.38523
L_Foot  -1.41636 -0.489574 -7.48684
L_Toe0  3.31933 -0.117716 -3.58438
R_Thigh  33.4817 3.04052 1.69448
R_Calf  -2.92871 -3.03812 -9.49014
R_Foot  3.30158 0.759569 -30.1195
R_Toe0  -4.38291 -0.0830058 -15.123
446
root  -17.1645 28.9897 4.69808 -103.762 -7.56889 73.4339
Spine  10.4268 9.79025 6.93729
Spine1  10.4315 -28.9765 -6.2989
Neck  3.97569e-016 0 -2.38542e-015
Head  -5.66529 -2.05375 8.13691
R_Clavicle  0.867231 1.49422 4.27667
R_UpperArm  3.65614 19.4315 -39.226
R_Forearm  14.39 3.57868 -3.00486
R_Hand  -0.387361 5.74806 -12.9666
L_Clavicle  -0.550283 18.3131 -1.40571
L_UpperArm  -22.8754 16.7156 60.7143
L_Forearm  13.4239 40.5095 54.3267
L_Hand  0.214374 2.67515 3.06301
L_Thigh  -17.1571 -21.5389 16.8158
L_Calf  5.04569 -0.619083 4.67744
L_Foot  3.68857 11.9625 2.73525
L_Toe0  0.844355 0.0369656 -5.82264
R_Thigh  36.2506 -0.919294 -2.60661
R_Calf  3.00271 -4.25047 -13.3332
R_Foot  3.26733 0.544067 -29.8308
R_Toe0  -6.46112 0.403758 -11.0336
